<?xml version="1.0" encoding="utf-8"?>
<!-- Generator: Adobe Illustrator 16.0.0, SVG Export Plug-In . SVG Version: 6.00 Build 0)  -->
<!DOCTYPE svg PUBLIC "-//W3C//DTD SVG 1.1//EN" "http://www.w3.org/Graphics/SVG/1.1/DTD/svg11.dtd">
<svg version="1.1" id="Layer_1" xmlns="http://www.w3.org/2000/svg" xmlns:xlink="http://www.w3.org/1999/xlink" x="0px" y="0px"
	 width="512px" height="512px" viewBox="0 0 512 512" enable-background="new 0 0 512 512" xml:space="preserve">
<path fill="#cfcd3a" id="sound-wave-icon" d="M27.649,268.322H3.004v-24.645h24.646V268.322z M510.686,243.678h-24.645v24.645h24.645V243.678z
	 M473.531,225.193h-24.646v61.612h24.646V225.193z M64.804,231.354H40.159v49.29h24.645V231.354z M101.961,219.032H77.315v73.935
	h24.646V219.032z M139.116,194.387h-24.646v123.227h24.646V194.387z M176.271,219.032h-24.645v73.935h24.645V219.032z
	 M213.428,169.741h-24.646v172.517h24.646V169.741z M250.583,120.451h-24.646v271.098h24.646V120.451z M287.753,169.741h-24.647
	v172.517h24.647V169.741z M324.908,206.709h-24.646v98.582h24.646V206.709z M362.064,219.032h-24.646v73.935h24.646V219.032z
	 M399.22,231.354h-24.646v49.29h24.646V231.354z M436.375,206.709h-24.646v98.582h24.646V206.709z"/>
</svg>
